<?xml version="1.0" standalone="no"?><!DOCTYPE svg PUBLIC "-//W3C//DTD SVG 1.1//EN" "http://www.w3.org/Graphics/SVG/1.1/DTD/svg11.dtd"><svg t="1711515717739" class="icon" viewBox="0 0 1024 1024" version="1.1" xmlns="http://www.w3.org/2000/svg" p-id="5594" xmlns:xlink="http://www.w3.org/1999/xlink" width="200" height="200"><path d="M512 997.052632c-269.473684 0-485.052632-215.578947-485.052632-485.052632s215.578947-485.052632 485.052632-485.052632 485.052632 215.578947 485.052632 485.052632-215.578947 485.052632-485.052632 485.052632z m0-916.210527c-237.136842 0-431.157895 194.021053-431.157895 431.157895s194.021053 431.157895 431.157895 431.157895 431.157895-194.021053 431.157895-431.157895-194.021053-431.157895-431.157895-431.157895z" fill="#444A5C" p-id="5595"></path><path d="M107.789474 269.473684h808.421052v53.894737H107.789474zM107.789474 700.631579h808.421052v53.894737H107.789474z" fill="#444A5C" p-id="5596"></path><path d="M463.494737 980.884211l-16.168421-21.557895c-301.810526-463.494737 0-889.263158 0-894.652632l16.168421-21.557895 43.115789 32.336843-16.168421 21.557894c-10.778947 16.168421-280.252632 398.821053 0 829.978948l16.168421 21.557894-43.115789 32.336843zM560.505263 980.884211l-43.115789-26.947369 16.168421-21.557895c280.252632-431.157895 5.389474-829.978947 0-829.978947l-16.168421-26.947368 43.115789-32.336843 16.168421 21.557895c5.389474 5.389474 301.810526 431.157895 0 894.652632l-16.168421 21.557895z" fill="#444A5C" p-id="5597"></path></svg>